<svg width="295" height="399" viewBox="0 0 295 399" fill="none" xmlns="http://www.w3.org/2000/svg">
<g clip-path="url(#clip0_60_65)">
<path d="M277.59 97.5L277.493 98.082L230.278 381.37C228.631 391.255 220.079 398.5 210.058 398.5H84.9424C74.9212 398.5 66.3691 391.255 64.7217 381.37L17.5068 98.082L17.4102 97.5H277.59Z" fill="white" stroke="#4B2901"/>
<path d="M275 49.5H20C9.23045 49.5 0.5 58.2304 0.5 69V78C0.5 88.7696 9.23045 97.5 20 97.5H275C285.77 97.5 294.5 88.7696 294.5 78V69C294.5 58.2304 285.77 49.5 275 49.5Z" fill="white" stroke="#4B2901"/>
<path d="M78.4385 0.5H216.562C224.485 0.500037 231.621 5.29481 234.615 12.6309L249.256 48.5H45.7441L60.3848 12.6309C63.3792 5.29481 70.5148 0.500034 78.4385 0.5Z" fill="white" stroke="#4B2901"/>
<path d="M29.5 173H265.5L246.5 287H48.5L29.5 173Z" fill="#4B2901"/>
<path d="M172 220C172 233.807 146.5 268 146.5 264C146.5 268 122 233.807 122 220C122 206.193 133.193 195 147 195C160.807 195 172 206.193 172 220Z" fill="white"/>
<path d="M147 232C155.284 232 162 225.284 162 217C162 208.716 155.284 202 147 202C138.716 202 132 208.716 132 217C132 225.284 138.716 232 147 232Z" fill="#4B2901"/>
</g>
<defs>
<clipPath id="clip0_60_65">
<rect width="295" height="399" fill="white"/>
</clipPath>
</defs>
</svg>
