<svg width="206" height="81" viewBox="0 0 206 81" fill="none" xmlns="http://www.w3.org/2000/svg">
<rect width="206" height="81" rx="10" fill="white"/>
<path d="M22.75 67.1254V28.8754C22.75 27.5479 23.515 26.3779 24.64 25.8379L46.8025 48.0004L24.64 70.1629C23.515 69.6004 22.75 68.4529 22.75 67.1254ZM53.8225 55.0204L29.6125 69.0154L48.715 49.9129L53.8225 55.0204ZM61.36 45.3229C62.125 45.9304 62.6875 46.8754 62.6875 48.0004C62.6875 49.1254 62.1925 50.0254 61.405 50.6554L56.2525 53.6254L50.6275 48.0004L56.2525 42.3754L61.36 45.3229ZM29.6125 26.9854L53.8225 40.9804L48.715 46.0879L29.6125 26.9854Z" fill="#4B2901"/>
<path d="M92.096 46.432C91.9147 46.1333 91.664 45.904 91.344 45.744C91.0347 45.584 90.6667 45.504 90.24 45.504C89.4507 45.504 88.8267 45.76 88.368 46.272C87.92 46.784 87.696 47.472 87.696 48.336C87.696 49.3067 87.936 50.048 88.416 50.56C88.9067 51.0613 89.616 51.312 90.544 51.312C91.6427 51.312 92.4267 50.816 92.896 49.824H89.744V47.568H95.6V50.608C95.3547 51.2053 94.992 51.7653 94.512 52.288C94.0427 52.8107 93.4453 53.2427 92.72 53.584C91.9947 53.9147 91.168 54.08 90.24 54.08C89.1093 54.08 88.1067 53.84 87.232 53.36C86.368 52.8693 85.696 52.192 85.216 51.328C84.7467 50.4533 84.512 49.456 84.512 48.336C84.512 47.2267 84.7467 46.24 85.216 45.376C85.696 44.5013 86.368 43.824 87.232 43.344C88.096 42.8533 89.0933 42.608 90.224 42.608C91.6427 42.608 92.816 42.9493 93.744 43.632C94.672 44.3147 95.248 45.248 95.472 46.432H92.096ZM101.181 54.112C100.285 54.112 99.48 53.9253 98.7654 53.552C98.0614 53.1787 97.5067 52.6453 97.1014 51.952C96.696 51.2587 96.4934 50.4427 96.4934 49.504C96.4934 48.576 96.696 47.7653 97.1014 47.072C97.5174 46.3787 98.0774 45.8453 98.7814 45.472C99.496 45.0987 100.301 44.912 101.197 44.912C102.093 44.912 102.893 45.0987 103.597 45.472C104.312 45.8453 104.872 46.3787 105.277 47.072C105.693 47.7653 105.901 48.576 105.901 49.504C105.901 50.432 105.693 51.248 105.277 51.952C104.872 52.6453 104.312 53.1787 103.597 53.552C102.883 53.9253 102.077 54.112 101.181 54.112ZM101.181 51.392C101.619 51.392 101.981 51.232 102.269 50.912C102.568 50.5813 102.717 50.112 102.717 49.504C102.717 48.896 102.568 48.432 102.269 48.112C101.981 47.792 101.624 47.632 101.197 47.632C100.771 47.632 100.413 47.792 100.125 48.112C99.8374 48.432 99.6934 48.896 99.6934 49.504C99.6934 50.1227 99.832 50.592 100.109 50.912C100.387 51.232 100.744 51.392 101.181 51.392ZM111.353 54.112C110.457 54.112 109.652 53.9253 108.937 53.552C108.233 53.1787 107.679 52.6453 107.273 51.952C106.868 51.2587 106.665 50.4427 106.665 49.504C106.665 48.576 106.868 47.7653 107.273 47.072C107.689 46.3787 108.249 45.8453 108.953 45.472C109.668 45.0987 110.473 44.912 111.369 44.912C112.265 44.912 113.065 45.0987 113.769 45.472C114.484 45.8453 115.044 46.3787 115.449 47.072C115.865 47.7653 116.073 48.576 116.073 49.504C116.073 50.432 115.865 51.248 115.449 51.952C115.044 52.6453 114.484 53.1787 113.769 53.552C113.055 53.9253 112.249 54.112 111.353 54.112ZM111.353 51.392C111.791 51.392 112.153 51.232 112.441 50.912C112.74 50.5813 112.889 50.112 112.889 49.504C112.889 48.896 112.74 48.432 112.441 48.112C112.153 47.792 111.796 47.632 111.369 47.632C110.943 47.632 110.585 47.792 110.297 48.112C110.009 48.432 109.865 48.896 109.865 49.504C109.865 50.1227 110.004 50.592 110.281 50.912C110.559 51.232 110.916 51.392 111.353 51.392ZM120.661 44.912C121.269 44.912 121.797 45.0347 122.245 45.28C122.704 45.5253 123.056 45.856 123.301 46.272V45.024H126.437V53.904C126.437 54.7467 126.277 55.504 125.957 56.176C125.637 56.8587 125.136 57.4027 124.453 57.808C123.781 58.2133 122.928 58.416 121.893 58.416C120.506 58.416 119.397 58.0907 118.565 57.44C117.733 56.7893 117.258 55.904 117.141 54.784H120.229C120.293 55.072 120.453 55.296 120.709 55.456C120.965 55.616 121.296 55.696 121.701 55.696C122.768 55.696 123.301 55.0987 123.301 53.904V52.752C123.056 53.168 122.704 53.4987 122.245 53.744C121.797 53.9893 121.269 54.112 120.661 54.112C119.946 54.112 119.296 53.9253 118.709 53.552C118.133 53.1787 117.674 52.6453 117.333 51.952C117.002 51.248 116.837 50.432 116.837 49.504C116.837 48.576 117.002 47.7653 117.333 47.072C117.674 46.3787 118.133 45.8453 118.709 45.472C119.296 45.0987 119.946 44.912 120.661 44.912ZM123.301 49.504C123.301 48.928 123.141 48.4747 122.821 48.144C122.512 47.8133 122.128 47.648 121.669 47.648C121.2 47.648 120.81 47.8133 120.501 48.144C120.192 48.464 120.037 48.9173 120.037 49.504C120.037 50.08 120.192 50.5387 120.501 50.88C120.81 51.2107 121.2 51.376 121.669 51.376C122.128 51.376 122.512 51.2107 122.821 50.88C123.141 50.5493 123.301 50.0907 123.301 49.504ZM131.36 42.16V54H128.224V42.16H131.36ZM141.722 49.408C141.722 49.6533 141.706 49.8987 141.674 50.144H135.738C135.77 50.6347 135.903 51.0027 136.138 51.248C136.383 51.4827 136.693 51.6 137.066 51.6C137.589 51.6 137.962 51.3653 138.186 50.896H141.53C141.391 51.5147 141.119 52.0693 140.714 52.56C140.319 53.04 139.818 53.4187 139.21 53.696C138.602 53.9733 137.93 54.112 137.194 54.112C136.309 54.112 135.519 53.9253 134.826 53.552C134.143 53.1787 133.605 52.6453 133.21 51.952C132.826 51.2587 132.634 50.4427 132.634 49.504C132.634 48.5653 132.826 47.7547 133.21 47.072C133.594 46.3787 134.127 45.8453 134.81 45.472C135.503 45.0987 136.298 44.912 137.194 44.912C138.079 44.912 138.863 45.0933 139.546 45.456C140.229 45.8187 140.762 46.3413 141.146 47.024C141.53 47.696 141.722 48.4907 141.722 49.408ZM138.522 48.624C138.522 48.24 138.394 47.9413 138.138 47.728C137.882 47.504 137.562 47.392 137.178 47.392C136.794 47.392 136.479 47.4987 136.234 47.712C135.989 47.9147 135.829 48.2187 135.754 48.624H138.522ZM154.98 46.48C154.98 47.1627 154.82 47.7867 154.5 48.352C154.191 48.9067 153.716 49.3547 153.076 49.696C152.447 50.0267 151.673 50.192 150.756 50.192H149.204V54H146.068V42.72H150.756C151.663 42.72 152.431 42.88 153.06 43.2C153.7 43.52 154.18 43.9627 154.5 44.528C154.82 45.0933 154.98 45.744 154.98 46.48ZM150.452 47.696C151.337 47.696 151.78 47.2907 151.78 46.48C151.78 45.6587 151.337 45.248 150.452 45.248H149.204V47.696H150.452ZM159.376 42.16V54H156.24V42.16H159.376ZM160.65 49.504C160.65 48.576 160.815 47.7653 161.146 47.072C161.487 46.3787 161.946 45.8453 162.522 45.472C163.108 45.0987 163.759 44.912 164.474 44.912C165.092 44.912 165.626 45.0347 166.074 45.28C166.522 45.5253 166.868 45.856 167.114 46.272V45.024H170.25V54H167.114V52.752C166.868 53.168 166.516 53.4987 166.058 53.744C165.61 53.9893 165.082 54.112 164.474 54.112C163.759 54.112 163.108 53.9253 162.522 53.552C161.946 53.1787 161.487 52.6453 161.146 51.952C160.815 51.248 160.65 50.432 160.65 49.504ZM167.114 49.504C167.114 48.928 166.954 48.4747 166.634 48.144C166.324 47.8133 165.94 47.648 165.482 47.648C165.012 47.648 164.623 47.8133 164.314 48.144C164.004 48.464 163.85 48.9173 163.85 49.504C163.85 50.08 164.004 50.5387 164.314 50.88C164.623 51.2107 165.012 51.376 165.482 51.376C165.94 51.376 166.324 51.2107 166.634 50.88C166.954 50.5493 167.114 50.0907 167.114 49.504ZM181.701 45.024L176.005 58.272H172.597L174.741 53.616L171.061 45.024H174.549L176.437 50.112L178.261 45.024H181.701Z" fill="black"/>
<path d="M60.69 9.13C61.726 9.13 62.6313 9.34 63.406 9.76C64.19 10.1707 64.792 10.7493 65.212 11.496C65.632 12.2427 65.842 13.0967 65.842 14.058C65.842 15.01 65.6273 15.8593 65.198 16.606C64.778 17.3527 64.176 17.9407 63.392 18.37C62.6173 18.79 61.7167 19 60.69 19H56.784V9.13H60.69ZM60.48 16.578C61.2827 16.578 61.9127 16.3587 62.37 15.92C62.8273 15.4813 63.056 14.8607 63.056 14.058C63.056 13.246 62.8273 12.6207 62.37 12.182C61.9127 11.734 61.2827 11.51 60.48 11.51H59.528V16.578H60.48ZM68.4649 10.418C67.9796 10.418 67.5876 10.2873 67.2889 10.026C66.9996 9.75533 66.8549 9.41933 66.8549 9.018C66.8549 8.60733 66.9996 8.26667 67.2889 7.996C67.5876 7.72533 67.9796 7.59 68.4649 7.59C68.9409 7.59 69.3236 7.72533 69.6129 7.996C69.9116 8.26667 70.0609 8.60733 70.0609 9.018C70.0609 9.41933 69.9116 9.75533 69.6129 10.026C69.3236 10.2873 68.9409 10.418 68.4649 10.418ZM69.8229 11.146V19H67.0789V11.146H69.8229ZM74.7316 19.098C74.0222 19.098 73.3876 18.9813 72.8276 18.748C72.2769 18.5053 71.8382 18.1787 71.5116 17.768C71.1942 17.348 71.0169 16.8767 70.9796 16.354H73.6396C73.6769 16.606 73.7936 16.802 73.9896 16.942C74.1856 17.082 74.4282 17.152 74.7176 17.152C74.9416 17.152 75.1189 17.1053 75.2496 17.012C75.3802 16.9187 75.4456 16.7973 75.4456 16.648C75.4456 16.452 75.3382 16.3073 75.1236 16.214C74.9089 16.1207 74.5542 16.018 74.0596 15.906C73.4996 15.794 73.0329 15.668 72.6596 15.528C72.2862 15.388 71.9596 15.1593 71.6796 14.842C71.4089 14.5247 71.2736 14.0953 71.2736 13.554C71.2736 13.0873 71.3996 12.6673 71.6516 12.294C71.9036 11.9113 72.2722 11.608 72.7576 11.384C73.2522 11.16 73.8449 11.048 74.5356 11.048C75.5622 11.048 76.3696 11.3 76.9576 11.804C77.5456 12.308 77.8862 12.9707 77.9796 13.792H75.5016C75.4549 13.54 75.3429 13.3487 75.1656 13.218C74.9976 13.078 74.7689 13.008 74.4796 13.008C74.2556 13.008 74.0829 13.05 73.9616 13.134C73.8496 13.218 73.7936 13.3347 73.7936 13.484C73.7936 13.6707 73.9009 13.8153 74.1156 13.918C74.3302 14.0113 74.6756 14.1093 75.1516 14.212C75.7209 14.3333 76.1922 14.4687 76.5656 14.618C76.9482 14.7673 77.2796 15.01 77.5596 15.346C77.8489 15.6727 77.9936 16.1207 77.9936 16.69C77.9936 17.1473 77.8582 17.558 77.5876 17.922C77.3262 18.286 76.9482 18.5753 76.4536 18.79C75.9682 18.9953 75.3942 19.098 74.7316 19.098ZM82.0866 12.238C82.3013 11.874 82.6046 11.5847 82.9966 11.37C83.3886 11.1553 83.8506 11.048 84.3826 11.048C85.0079 11.048 85.5726 11.2113 86.0766 11.538C86.5899 11.8647 86.9913 12.3313 87.2806 12.938C87.5793 13.5447 87.7286 14.254 87.7286 15.066C87.7286 15.878 87.5793 16.592 87.2806 17.208C86.9913 17.8147 86.5899 18.2813 86.0766 18.608C85.5726 18.9347 85.0079 19.098 84.3826 19.098C83.8506 19.098 83.3886 18.9907 82.9966 18.776C82.6139 18.5613 82.3106 18.272 82.0866 17.908V22.752H79.3426V11.146H82.0866V12.238ZM84.9426 15.066C84.9426 14.5527 84.8026 14.156 84.5226 13.876C84.2519 13.5867 83.9159 13.442 83.5146 13.442C83.1133 13.442 82.7726 13.5867 82.4926 13.876C82.2219 14.1653 82.0866 14.562 82.0866 15.066C82.0866 15.5793 82.2219 15.9807 82.4926 16.27C82.7726 16.5593 83.1133 16.704 83.5146 16.704C83.9159 16.704 84.2519 16.5593 84.5226 16.27C84.8026 15.9713 84.9426 15.57 84.9426 15.066ZM92.5122 19.098C91.7282 19.098 91.0236 18.9347 90.3982 18.608C89.7822 18.2813 89.2969 17.8147 88.9422 17.208C88.5876 16.6013 88.4102 15.8873 88.4102 15.066C88.4102 14.254 88.5876 13.5447 88.9422 12.938C89.3062 12.3313 89.7962 11.8647 90.4122 11.538C91.0376 11.2113 91.7422 11.048 92.5262 11.048C93.3102 11.048 94.0102 11.2113 94.6262 11.538C95.2516 11.8647 95.7416 12.3313 96.0962 12.938C96.4602 13.5447 96.6422 14.254 96.6422 15.066C96.6422 15.878 96.4602 16.592 96.0962 17.208C95.7416 17.8147 95.2516 18.2813 94.6262 18.608C94.0009 18.9347 93.2962 19.098 92.5122 19.098ZM92.5122 16.718C92.8949 16.718 93.2122 16.578 93.4642 16.298C93.7256 16.0087 93.8562 15.598 93.8562 15.066C93.8562 14.534 93.7256 14.128 93.4642 13.848C93.2122 13.568 92.8996 13.428 92.5262 13.428C92.1529 13.428 91.8402 13.568 91.5882 13.848C91.3362 14.128 91.2102 14.534 91.2102 15.066C91.2102 15.6073 91.3316 16.018 91.5742 16.298C91.8169 16.578 92.1296 16.718 92.5122 16.718ZM102.897 11.076C103.802 11.076 104.521 11.3793 105.053 11.986C105.585 12.5833 105.851 13.3953 105.851 14.422V19H103.107V14.786C103.107 14.338 102.99 13.988 102.757 13.736C102.523 13.4747 102.211 13.344 101.819 13.344C101.408 13.344 101.086 13.4747 100.853 13.736C100.619 13.988 100.503 14.338 100.503 14.786V19H97.7586V11.146H100.503V12.266C100.745 11.9113 101.072 11.6267 101.483 11.412C101.893 11.188 102.365 11.076 102.897 11.076ZM108.742 10.418C108.257 10.418 107.865 10.2873 107.566 10.026C107.277 9.75533 107.132 9.41933 107.132 9.018C107.132 8.60733 107.277 8.26667 107.566 7.996C107.865 7.72533 108.257 7.59 108.742 7.59C109.218 7.59 109.601 7.72533 109.89 7.996C110.189 8.26667 110.338 8.60733 110.338 9.018C110.338 9.41933 110.189 9.75533 109.89 10.026C109.601 10.2873 109.218 10.418 108.742 10.418ZM110.1 11.146V19H107.356V11.146H110.1ZM114.407 12.238C114.622 11.8647 114.925 11.5753 115.317 11.37C115.709 11.1553 116.171 11.048 116.703 11.048C117.328 11.048 117.893 11.2113 118.397 11.538C118.91 11.8647 119.312 12.3313 119.601 12.938C119.9 13.5447 120.049 14.254 120.049 15.066C120.049 15.878 119.9 16.592 119.601 17.208C119.312 17.8147 118.91 18.2813 118.397 18.608C117.893 18.9347 117.328 19.098 116.703 19.098C116.171 19.098 115.709 18.9953 115.317 18.79C114.925 18.5753 114.622 18.2813 114.407 17.908V19H111.663V8.64H114.407V12.238ZM117.263 15.066C117.263 14.5527 117.123 14.156 116.843 13.876C116.572 13.5867 116.236 13.442 115.835 13.442C115.434 13.442 115.093 13.5867 114.813 13.876C114.542 14.1653 114.407 14.562 114.407 15.066C114.407 15.5793 114.542 15.9807 114.813 16.27C115.093 16.5593 115.434 16.704 115.835 16.704C116.236 16.704 116.572 16.5593 116.843 16.27C117.123 15.9713 117.263 15.57 117.263 15.066ZM123.923 8.64V19H121.179V8.64H123.923ZM132.989 14.982C132.989 15.1967 132.975 15.4113 132.947 15.626H127.753C127.781 16.0553 127.898 16.3773 128.103 16.592C128.318 16.7973 128.589 16.9 128.915 16.9C129.373 16.9 129.699 16.6947 129.895 16.284H132.821C132.7 16.8253 132.462 17.3107 132.107 17.74C131.762 18.16 131.323 18.4913 130.791 18.734C130.259 18.9767 129.671 19.098 129.027 19.098C128.253 19.098 127.562 18.9347 126.955 18.608C126.358 18.2813 125.887 17.8147 125.541 17.208C125.205 16.6013 125.037 15.8873 125.037 15.066C125.037 14.2447 125.205 13.5353 125.541 12.938C125.877 12.3313 126.344 11.8647 126.941 11.538C127.548 11.2113 128.243 11.048 129.027 11.048C129.802 11.048 130.488 11.2067 131.085 11.524C131.683 11.8413 132.149 12.2987 132.485 12.896C132.821 13.484 132.989 14.1793 132.989 14.982ZM130.189 14.296C130.189 13.96 130.077 13.6987 129.853 13.512C129.629 13.316 129.349 13.218 129.013 13.218C128.677 13.218 128.402 13.3113 128.187 13.498C127.973 13.6753 127.833 13.9413 127.767 14.296H130.189ZM144.296 14.982C144.296 15.1967 144.282 15.4113 144.254 15.626H139.06C139.088 16.0553 139.204 16.3773 139.41 16.592C139.624 16.7973 139.895 16.9 140.222 16.9C140.679 16.9 141.006 16.6947 141.202 16.284H144.128C144.006 16.8253 143.768 17.3107 143.414 17.74C143.068 18.16 142.63 18.4913 142.098 18.734C141.566 18.9767 140.978 19.098 140.334 19.098C139.559 19.098 138.868 18.9347 138.262 18.608C137.664 18.2813 137.193 17.8147 136.848 17.208C136.512 16.6013 136.344 15.8873 136.344 15.066C136.344 14.2447 136.512 13.5353 136.848 12.938C137.184 12.3313 137.65 11.8647 138.248 11.538C138.854 11.2113 139.55 11.048 140.334 11.048C141.108 11.048 141.794 11.2067 142.392 11.524C142.989 11.8413 143.456 12.2987 143.792 12.896C144.128 13.484 144.296 14.1793 144.296 14.982ZM141.496 14.296C141.496 13.96 141.384 13.6987 141.16 13.512C140.936 13.316 140.656 13.218 140.32 13.218C139.984 13.218 139.708 13.3113 139.494 13.498C139.279 13.6753 139.139 13.9413 139.074 14.296H141.496ZM150.557 11.076C151.462 11.076 152.181 11.3793 152.713 11.986C153.245 12.5833 153.511 13.3953 153.511 14.422V19H150.767V14.786C150.767 14.338 150.65 13.988 150.417 13.736C150.183 13.4747 149.871 13.344 149.479 13.344C149.068 13.344 148.746 13.4747 148.513 13.736C148.279 13.988 148.163 14.338 148.163 14.786V19H145.419V11.146H148.163V12.266C148.405 11.9113 148.732 11.6267 149.143 11.412C149.553 11.188 150.025 11.076 150.557 11.076ZM156.346 19.112C155.861 19.112 155.469 18.9813 155.17 18.72C154.881 18.4493 154.736 18.1087 154.736 17.698C154.736 17.2873 154.881 16.9467 155.17 16.676C155.469 16.4053 155.861 16.27 156.346 16.27C156.822 16.27 157.205 16.4053 157.494 16.676C157.793 16.9467 157.942 17.2873 157.942 17.698C157.942 18.0993 157.793 18.4353 157.494 18.706C157.205 18.9767 156.822 19.112 156.346 19.112ZM156.346 13.484C155.861 13.484 155.469 13.3533 155.17 13.092C154.881 12.8213 154.736 12.4807 154.736 12.07C154.736 11.6593 154.881 11.3187 155.17 11.048C155.469 10.7773 155.861 10.642 156.346 10.642C156.822 10.642 157.205 10.7773 157.494 11.048C157.793 11.3187 157.942 11.6593 157.942 12.07C157.942 12.4713 157.793 12.8073 157.494 13.078C157.205 13.3487 156.822 13.484 156.346 13.484Z" fill="black"/>
</svg>
