<svg width="340" height="68" viewBox="0 0 340 68" fill="none" xmlns="http://www.w3.org/2000/svg">
<path d="M12.544 19.5841C13.5253 17.9201 14.912 16.5974 16.704 15.6161C18.496 14.6348 20.608 14.1441 23.04 14.1441C25.8987 14.1441 28.48 14.8908 30.784 16.3841C33.1307 17.8774 34.9653 20.0108 36.288 22.7841C37.6534 25.5574 38.336 28.8001 38.336 32.5121C38.336 36.2241 37.6534 39.4881 36.288 42.3041C34.9653 45.0774 33.1307 47.2108 30.784 48.7041C28.48 50.1974 25.8987 50.9441 23.04 50.9441C20.608 50.9441 18.496 50.4534 16.704 49.4721C14.9547 48.4908 13.568 47.1681 12.544 45.5041V67.6481H1.57356e-05V14.5921H12.544V19.5841ZM25.6 32.5121C25.6 30.1654 24.96 28.3521 23.68 27.0721C22.4427 25.7494 20.9067 25.0881 19.072 25.0881C17.2373 25.0881 15.68 25.7494 14.4 27.0721C13.1627 28.3948 12.544 30.2081 12.544 32.5121C12.544 34.8588 13.1627 36.6934 14.4 38.0161C15.68 39.3388 17.2373 40.0001 19.072 40.0001C20.9067 40.0001 22.4427 39.3388 23.68 38.0161C24.96 36.6508 25.6 34.8161 25.6 32.5121ZM80.236 14.5921V50.4961H67.628V45.3761C66.5614 46.9974 65.0894 48.3201 63.212 49.3441C61.3347 50.3254 59.18 50.8161 56.748 50.8161C52.5667 50.8161 49.26 49.4508 46.828 46.7201C44.4387 43.9468 43.244 40.1921 43.244 35.4561V14.5921H55.724V33.8561C55.724 35.9041 56.2573 37.5254 57.324 38.7201C58.4333 39.8721 59.884 40.4481 61.676 40.4481C63.5107 40.4481 64.9614 39.8721 66.028 38.7201C67.0947 37.5254 67.628 35.9041 67.628 33.8561V14.5921H80.236ZM110.863 14.2721C115.002 14.2721 118.287 15.6588 120.719 18.4321C123.151 21.1628 124.367 24.8748 124.367 29.5681V50.4961H111.823V31.2321C111.823 29.1841 111.29 27.5841 110.223 26.4321C109.156 25.2374 107.727 24.6401 105.935 24.6401C104.058 24.6401 102.586 25.2374 101.519 26.4321C100.452 27.5841 99.919 29.1841 99.919 31.2321V50.4961H87.375V14.5921H99.919V19.7121C101.028 18.0908 102.522 16.7894 104.399 15.8081C106.276 14.7841 108.431 14.2721 110.863 14.2721ZM152.434 39.8081V50.4961H146.994C137.821 50.4961 133.234 45.9521 133.234 36.8641V25.0241H128.818V14.5921H133.234V5.88809H145.842V14.5921H152.37V25.0241H145.842V37.0561C145.842 38.0374 146.055 38.7414 146.482 39.1681C146.951 39.5948 147.719 39.8081 148.786 39.8081H152.434ZM174.892 50.9441C171.308 50.9441 168.086 50.1974 165.228 48.7041C162.412 47.2108 160.193 45.0774 158.572 42.3041C156.95 39.5308 156.14 36.2668 156.14 32.5121C156.14 28.8001 156.95 25.5574 158.572 22.7841C160.236 20.0108 162.476 17.8774 165.292 16.3841C168.15 14.8908 171.372 14.1441 174.956 14.1441C178.54 14.1441 181.74 14.8908 184.556 16.3841C187.414 17.8774 189.654 20.0108 191.276 22.7841C192.94 25.5574 193.772 28.8001 193.772 32.5121C193.772 36.2241 192.94 39.4881 191.276 42.3041C189.654 45.0774 187.414 47.2108 184.556 48.7041C181.697 50.1974 178.476 50.9441 174.892 50.9441ZM174.892 40.0641C176.641 40.0641 178.092 39.4241 179.244 38.1441C180.438 36.8214 181.036 34.9441 181.036 32.5121C181.036 30.0801 180.438 28.2241 179.244 26.9441C178.092 25.6641 176.662 25.0241 174.956 25.0241C173.249 25.0241 171.82 25.6641 170.668 26.9441C169.516 28.2241 168.94 30.0801 168.94 32.5121C168.94 34.9868 169.494 36.8641 170.604 38.1441C171.713 39.4241 173.142 40.0641 174.892 40.0641Z" fill="black"/>
<path d="M196.827 32.5121C196.827 28.8001 197.595 25.5574 199.131 22.7841C200.667 20.0108 202.8 17.8774 205.531 16.3841C208.304 14.8908 211.462 14.1441 215.003 14.1441C219.568 14.1441 223.408 15.4028 226.523 17.9201C229.638 20.3948 231.643 23.8721 232.539 28.3521H219.227C218.459 26.0054 216.966 24.8321 214.747 24.8321C213.168 24.8321 211.91 25.4934 210.971 26.8161C210.075 28.0961 209.627 29.9948 209.627 32.5121C209.627 35.0294 210.075 36.9494 210.971 38.2721C211.91 39.5948 213.168 40.2561 214.747 40.2561C217.008 40.2561 218.502 39.0828 219.227 36.7361H232.539C231.643 41.1734 229.638 44.6508 226.523 47.1681C223.408 49.6854 219.568 50.9441 215.003 50.9441C211.462 50.9441 208.304 50.1974 205.531 48.7041C202.8 47.2108 200.667 45.0774 199.131 42.3041C197.595 39.5308 196.827 36.2668 196.827 32.5121ZM235.702 32.5121C235.702 28.8001 236.363 25.5574 237.686 22.7841C239.051 20.0108 240.886 17.8774 243.19 16.3841C245.537 14.8908 248.139 14.1441 250.998 14.1441C253.473 14.1441 255.606 14.6348 257.398 15.6161C259.19 16.5974 260.577 17.9201 261.558 19.5841V14.5921H274.102V50.4961H261.558V45.5041C260.577 47.1681 259.169 48.4908 257.334 49.4721C255.542 50.4534 253.43 50.9441 250.998 50.9441C248.139 50.9441 245.537 50.1974 243.19 48.7041C240.886 47.2108 239.051 45.0774 237.686 42.3041C236.363 39.4881 235.702 36.2241 235.702 32.5121ZM261.558 32.5121C261.558 30.2081 260.918 28.3948 259.638 27.0721C258.401 25.7494 256.865 25.0881 255.03 25.0881C253.153 25.0881 251.595 25.7494 250.358 27.0721C249.121 28.3521 248.502 30.1654 248.502 32.5121C248.502 34.8161 249.121 36.6508 250.358 38.0161C251.595 39.3388 253.153 40.0001 255.03 40.0001C256.865 40.0001 258.401 39.3388 259.638 38.0161C260.918 36.6934 261.558 34.8588 261.558 32.5121ZM300.642 25.0241H295.01V50.4961H282.402V25.0241H278.498V14.5921H282.402V14.2721C282.402 9.66409 283.746 6.14409 286.434 3.71209C289.165 1.23743 293.069 9.15527e-05 298.146 9.15527e-05C299.17 9.15527e-05 299.959 0.0214246 300.514 0.0640907V10.7521C300.173 10.7094 299.703 10.6881 299.106 10.6881C297.741 10.6881 296.738 11.0081 296.098 11.6481C295.458 12.2454 295.095 13.2268 295.01 14.5921H300.642V25.0241ZM339.429 32.1281C339.429 33.1094 339.365 34.0908 339.237 35.0721H315.493C315.621 37.0348 316.154 38.5068 317.093 39.4881C318.074 40.4268 319.312 40.8961 320.805 40.8961C322.896 40.8961 324.389 39.9574 325.285 38.0801H338.661C338.106 40.5548 337.018 42.7734 335.397 44.7361C333.818 46.6561 331.813 48.1708 329.381 49.2801C326.949 50.3894 324.261 50.9441 321.317 50.9441C317.776 50.9441 314.618 50.1974 311.845 48.7041C309.114 47.2108 306.96 45.0774 305.381 42.3041C303.845 39.5308 303.077 36.2668 303.077 32.5121C303.077 28.7574 303.845 25.5148 305.381 22.7841C306.917 20.0108 309.05 17.8774 311.781 16.3841C314.554 14.8908 317.733 14.1441 321.317 14.1441C324.858 14.1441 327.994 14.8694 330.725 16.3201C333.456 17.7708 335.589 19.8614 337.125 22.5921C338.661 25.2801 339.429 28.4588 339.429 32.1281ZM326.629 28.9921C326.629 27.4561 326.117 26.2614 325.093 25.4081C324.069 24.5121 322.789 24.0641 321.253 24.0641C319.717 24.0641 318.458 24.4908 317.477 25.3441C316.496 26.1548 315.856 27.3708 315.557 28.9921H326.629Z" fill="#E33900"/>
</svg>
