<svg width="295" height="399" viewBox="0 0 295 399" fill="none" xmlns="http://www.w3.org/2000/svg">
<g clip-path="url(#clip0_64_123)">
<path d="M277.59 97.5L277.493 98.082L230.278 381.37C228.631 391.255 220.079 398.5 210.058 398.5H84.9424C74.9212 398.5 66.3691 391.255 64.7217 381.37L17.5068 98.082L17.4102 97.5H277.59Z" fill="#4B2901" stroke="#6F563A"/>
<path d="M275 49.5H20C9.23045 49.5 0.5 58.2304 0.5 69V78C0.5 88.7696 9.23045 97.5 20 97.5H275C285.77 97.5 294.5 88.7696 294.5 78V69C294.5 58.2304 285.77 49.5 275 49.5Z" fill="#4B2901" stroke="#6F563A"/>
<path d="M78.4385 0.5H216.562C224.485 0.500037 231.621 5.29481 234.615 12.6309L249.256 48.5H45.7441L60.3848 12.6309C63.3792 5.29481 70.5148 0.500034 78.4385 0.5Z" fill="#4B2901" stroke="#6F563A"/>
<path d="M264.91 173.5L246.076 286.5H48.9238L30.0898 173.5H264.91Z" fill="#4B2901" stroke="#6F563A"/>
<path d="M147 195.5C160.531 195.5 171.5 206.469 171.5 220C171.5 223.333 169.951 227.973 167.563 233.05C165.186 238.107 162.011 243.53 158.831 248.404C155.651 253.279 152.476 257.594 150.101 260.434C148.908 261.859 147.937 262.891 147.276 263.439C147.113 263.575 146.978 263.673 146.87 263.739C146.817 263.772 146.774 263.795 146.742 263.809C146.711 263.822 146.696 263.825 146.696 263.825C146.702 263.824 146.832 263.808 146.94 263.926C146.966 263.954 146.98 263.98 146.989 264H146.012C146.02 263.982 146.033 263.958 146.056 263.933C146.165 263.809 146.302 263.822 146.318 263.825C146.318 263.825 146.27 263.812 146.163 263.744C146.061 263.679 145.931 263.582 145.774 263.446C145.141 262.899 144.207 261.867 143.062 260.441C140.78 257.602 137.729 253.287 134.674 248.412C131.619 243.537 128.569 238.114 126.284 233.057C123.991 227.98 122.5 223.338 122.5 220C122.5 206.469 133.469 195.5 147 195.5Z" fill="#4B2901" stroke="#6F563A"/>
<path d="M147 202.5C155.008 202.5 161.5 208.992 161.5 217C161.5 225.008 155.008 231.5 147 231.5C138.992 231.5 132.5 225.008 132.5 217C132.5 208.992 138.992 202.5 147 202.5Z" fill="#4B2901" stroke="#6F563A"/>
</g>
<defs>
<clipPath id="clip0_64_123">
<rect width="295" height="399" fill="white"/>
</clipPath>
</defs>
</svg>
