<svg width="320" height="320" viewBox="0 0 320 320" fill="none" xmlns="http://www.w3.org/2000/svg">
<g clip-path="url(#clip0_490_14)">
<path d="M159.997 320C156.349 320 152.716 319.877 149.191 319.641C145.559 319.4 141.91 319.03 138.355 318.543C136.79 318.332 135.373 318.122 134.024 317.901C130.017 317.25 125.937 316.424 121.899 315.438C120.514 315.105 119.164 314.756 117.882 314.397C117.43 314.279 116.968 314.15 116.512 314.022C114.562 313.473 112.673 312.903 110.908 312.329C110.795 312.298 110.662 312.252 110.529 312.211C108.938 311.698 107.276 311.128 105.593 310.517C104.171 310.004 102.735 309.46 101.2 308.855C96.1924 306.879 91.205 304.606 86.3766 302.102C60.7623 288.802 39.1758 268.795 23.9365 244.242C8.28157 218.986 0 189.856 0 159.997C0 117.259 16.6452 77.0765 46.8622 46.8586C77.0791 16.6406 117.261 0 159.997 0C202.734 0 242.916 16.6406 273.138 46.8586C303.36 77.0765 320 117.259 320 159.997C320 185.11 314.346 209.15 303.201 231.445C292.569 252.709 277.007 271.689 258.186 286.329C249.212 293.312 239.493 299.347 229.288 304.252C228.133 304.811 226.896 305.381 225.408 306.053L225.244 306.125C225.065 306.207 224.89 306.284 224.711 306.361C223.592 306.859 222.453 307.346 221.329 307.808L220.821 308.024C220.519 308.152 220.216 308.275 219.908 308.393C215.783 310.061 211.549 311.574 207.316 312.873C204.176 313.848 200.887 314.751 197.536 315.556C185.33 318.502 172.697 319.995 159.997 319.995V320ZM159.997 1.04164C117.533 1.04164 77.6128 17.5745 47.5908 47.6026C17.5637 77.6101 1.02622 117.531 1.02622 159.997C1.02622 189.666 9.25647 218.607 24.819 243.693C39.9557 268.087 61.4088 287.971 86.859 301.184C91.6565 303.672 96.6132 305.93 101.59 307.895C103.114 308.501 104.541 309.04 105.952 309.548C107.63 310.153 109.277 310.718 110.862 311.231C110.985 311.272 111.103 311.308 111.221 311.344C112.986 311.918 114.859 312.483 116.799 313.032C117.25 313.16 117.702 313.288 118.153 313.406C119.431 313.76 120.77 314.109 122.145 314.443C126.158 315.423 130.206 316.244 134.193 316.89C135.532 317.111 136.938 317.322 138.493 317.532C142.023 318.014 145.646 318.384 149.258 318.62C152.757 318.856 156.37 318.979 159.992 318.979C172.61 318.979 185.16 317.496 197.295 314.571C200.625 313.771 203.894 312.873 207.014 311.908C211.216 310.615 215.429 309.117 219.528 307.454C219.836 307.336 220.129 307.213 220.421 307.09L221.027 306.833C222.109 306.387 223.207 305.915 224.295 305.432C224.48 305.355 224.649 305.278 224.818 305.201L224.983 305.13C226.46 304.463 227.687 303.893 228.836 303.339C238.975 298.464 248.637 292.471 257.55 285.528C276.247 270.976 291.712 252.119 302.277 230.993C313.35 208.842 318.969 184.956 318.969 160.003C318.969 117.536 302.431 77.6152 272.404 47.5923C242.387 17.5591 202.462 1.02625 159.997 1.02625V1.04164Z" fill="white"/>
<path d="M145.466 91.2542C145.466 91.2542 117.363 94.4253 115.552 137.943C114.043 174.206 110.955 194.418 125.706 201.981C130.981 204.686 137.18 204.922 142.813 203.074L203.037 183.273C203.037 183.273 203.945 117.998 183.092 102.132C162.24 86.2666 145.471 91.2542 145.471 91.2542H145.466Z" fill="#2F2E41"/>
<path d="M178.664 191.288L148.186 201.309V157.437H175.837L178.664 191.288Z" fill="#F6A6A9"/>
<path d="M219.723 307.921C215.618 309.583 211.431 311.077 207.168 312.39C203.961 313.386 200.707 314.273 197.418 315.064C185.417 317.958 172.882 319.487 159.997 319.487C156.375 319.487 152.783 319.369 149.227 319.128C145.589 318.886 141.987 318.522 138.426 318.035C136.979 317.84 135.543 317.629 134.111 317.393C130.032 316.731 125.999 315.905 122.027 314.935C120.688 314.612 119.354 314.268 118.025 313.899C117.569 313.781 117.112 313.653 116.66 313.524C114.788 312.996 112.925 312.436 111.078 311.836C110.955 311.8 110.826 311.759 110.703 311.718C109.051 311.184 107.409 310.62 105.777 310.03C104.31 309.501 102.853 308.947 101.401 308.372L133.064 204.152L134.383 199.816L139.063 184.417L139.099 184.294L139.135 184.181H194.432L194.802 185.982L203.868 230.336L210.4 262.304L216.824 293.723L219.467 306.654L219.723 307.921Z" fill="white"/>
<path d="M147.857 184.207L144.137 199.616L143.619 201.776L143.347 202.9L126.845 271.304L116.66 313.524C114.787 312.996 112.925 312.436 111.078 311.836C110.955 311.8 110.826 311.759 110.703 311.718C109.051 311.184 107.409 310.62 105.777 310.03C104.31 309.501 102.853 308.947 101.4 308.372C96.3412 306.376 91.4102 304.124 86.6229 301.64C97.311 248.737 108.04 196.722 109.785 192.365C110.549 190.451 112.689 188.984 115.588 187.855C116.424 187.526 117.327 187.229 118.277 186.957C124.501 185.181 132.808 184.53 139.037 184.299H139.099C141.582 184.212 143.732 184.186 145.281 184.186C146.831 184.186 147.857 184.212 147.857 184.212V184.207Z" fill="white"/>
<path d="M151.957 169.583C168.73 169.583 182.328 155.985 182.328 139.211C182.328 122.437 168.73 108.839 151.957 108.839C135.184 108.839 121.586 122.437 121.586 139.211C121.586 155.985 135.184 169.583 151.957 169.583Z" fill="#F6A6A9"/>
<path d="M143.655 102.589C143.655 102.589 126.943 170.45 145.528 202.181L119.349 196.619C119.349 196.619 109.205 122.339 129.606 108.839L143.66 102.589H143.655Z" fill="#2F2E41"/>
<path opacity="0.1" d="M138.426 318.035C136.979 317.84 135.543 317.629 134.111 317.393C130.032 316.731 125.999 315.905 122.027 314.935C120.688 314.612 119.354 314.268 118.025 313.899L119.734 300.794L124.295 265.783L126.348 273.367L128.236 280.351L138.426 318.035Z" fill="#272223"/>
<path opacity="0.1" d="M224.511 305.894C223.392 306.392 222.268 306.874 221.134 307.341C220.965 307.413 220.796 307.485 220.626 307.557C220.329 307.68 220.031 307.803 219.728 307.921C215.624 309.584 211.437 311.077 207.173 312.39C197.044 305.222 189.24 295.237 184.734 283.671L182.333 277.508L166.95 232.948L201.031 268.708L207.26 278.57L216.829 293.718L224.516 305.889H224.511V305.894Z" fill="#272223"/>
<path d="M257.873 285.928C248.975 292.856 239.329 298.859 229.067 303.795C227.789 304.411 226.496 305.006 225.198 305.591C224.967 305.694 224.741 305.797 224.51 305.894C223.392 306.392 222.268 306.874 221.134 307.341C220.575 307.126 220.021 306.895 219.472 306.654C213.843 304.191 208.814 300.445 204.376 296.068C198.414 290.172 193.529 283.122 189.696 276.461C187.808 273.182 186.176 269.996 184.796 267.092L184.775 267.045C181.055 259.179 179.213 253.391 179.213 253.391L174.262 233.056L172.902 227.478L165.164 195.726L162.353 184.181L166.55 183.996L178.018 183.493L190.666 182.934C193.58 183.155 196.423 183.699 199.158 184.55C207.937 187.244 215.572 193.002 220.585 200.924C234.367 222.717 256.436 261.155 257.878 285.928H257.873Z" fill="white"/>
<path d="M113.771 170.034C120.426 167.638 138.041 167.628 145.943 170.296C147.478 170.814 148.406 172.374 148.139 173.97L147.826 175.863C148.514 175.761 149.186 175.566 149.822 175.273C151.706 174.411 155.415 173.241 159.161 175.109C161.778 176.412 163.62 178.87 164.266 181.728C165.811 188.563 161.916 192.345 161.916 192.345L156.729 197.214C152.383 201.289 147.642 204.922 142.577 208.052L142.475 208.113L144.322 196.999C145.364 198.831 147.719 199.431 149.509 198.323C154.035 195.521 161.429 189.907 160.531 183.534C159.905 179.091 157.437 178.147 155.066 178.347C152.414 178.573 150.1 180.24 148.966 182.647C148.694 183.221 148.247 183.694 147.693 184.001L146.359 184.73L142.449 208.288C142.275 209.345 141.597 210.258 140.638 210.73C131.443 215.24 121.519 212.901 118.087 211.849C117.302 211.608 116.629 211.089 116.209 210.381L115.47 209.155C115.213 208.734 115.059 208.257 115.008 207.769L111.596 173.482C111.447 171.969 112.345 170.552 113.777 170.034H113.771Z" fill="#E33900"/>
<path d="M145.158 171.856C145.158 172.661 138.236 173.313 129.698 173.313C121.16 173.313 114.238 172.661 114.238 171.856C114.238 171.05 121.16 170.398 129.698 170.398C138.236 170.398 145.158 171.05 145.158 171.856Z" fill="#DEDFE0"/>
<path d="M152.634 204.039C146.816 195.675 146.605 185.838 152.162 182.062C157.719 178.285 166.935 182 172.753 190.369C175.124 193.679 176.632 197.517 177.156 201.566L201.333 237.315L183.59 248.553L161.639 212.121C158.001 210.191 154.912 207.42 152.634 204.044V204.039Z" fill="#F6A6A9"/>
<path d="M166.945 232.954L186.925 214.563L226.43 251.349L189.691 276.461L166.945 232.954Z" fill="white"/>
<path opacity="0.1" d="M222.94 256.449L224.51 268.513L214.043 256.449V244.283L222.94 256.449Z" fill="#272223"/>
</g>
<defs>
<clipPath id="clip0_490_14">
<rect width="320" height="320" fill="white"/>
</clipPath>
</defs>
</svg>
