<svg width="1043" height="399" viewBox="0 0 1043 399" fill="none" xmlns="http://www.w3.org/2000/svg">
<path d="M371.256 182.176C373.219 178.848 375.992 176.203 379.576 174.24C383.16 172.277 387.384 171.296 392.248 171.296C397.965 171.296 403.128 172.789 407.736 175.776C412.429 178.763 416.099 183.029 418.744 188.576C421.475 194.123 422.84 200.608 422.84 208.032C422.84 215.456 421.475 221.984 418.744 227.616C416.099 233.163 412.429 237.429 407.736 240.416C403.128 243.403 397.965 244.896 392.248 244.896C387.384 244.896 383.16 243.915 379.576 241.952C376.077 239.989 373.304 237.344 371.256 234.016V278.304H346.168V172.192H371.256V182.176ZM397.368 208.032C397.368 203.339 396.088 199.712 393.528 197.152C391.053 194.507 387.981 193.184 384.312 193.184C380.643 193.184 377.528 194.507 374.968 197.152C372.493 199.797 371.256 203.424 371.256 208.032C371.256 212.725 372.493 216.395 374.968 219.04C377.528 221.685 380.643 223.008 384.312 223.008C387.981 223.008 391.053 221.685 393.528 219.04C396.088 216.309 397.368 212.64 397.368 208.032ZM506.64 172.192V244H481.424V233.76C479.291 237.003 476.347 239.648 472.592 241.696C468.837 243.659 464.528 244.64 459.664 244.64C451.301 244.64 444.688 241.909 439.824 236.448C435.045 230.901 432.656 223.392 432.656 213.92V172.192H457.616V210.72C457.616 214.816 458.683 218.059 460.816 220.448C463.035 222.752 465.936 223.904 469.52 223.904C473.189 223.904 476.091 222.752 478.224 220.448C480.357 218.059 481.424 214.816 481.424 210.72V172.192H506.64ZM567.894 171.552C576.171 171.552 582.742 174.325 587.606 179.872C592.47 185.333 594.902 192.757 594.902 202.144V244H569.814V205.472C569.814 201.376 568.747 198.176 566.614 195.872C564.481 193.483 561.622 192.288 558.038 192.288C554.283 192.288 551.339 193.483 549.206 195.872C547.073 198.176 546.006 201.376 546.006 205.472V244H520.918V172.192H546.006V182.432C548.225 179.189 551.211 176.587 554.966 174.624C558.721 172.576 563.03 171.552 567.894 171.552ZM651.036 222.624V244H640.156C621.809 244 612.636 234.912 612.636 216.736V193.056H603.804V172.192H612.636V154.784H637.852V172.192H650.908V193.056H637.852V217.12C637.852 219.083 638.279 220.491 639.132 221.344C640.071 222.197 641.607 222.624 643.74 222.624H651.036ZM695.951 244.896C688.783 244.896 682.34 243.403 676.623 240.416C670.991 237.429 666.554 233.163 663.311 227.616C660.068 222.069 658.447 215.541 658.447 208.032C658.447 200.608 660.068 194.123 663.311 188.576C666.639 183.029 671.119 178.763 676.751 175.776C682.468 172.789 688.911 171.296 696.079 171.296C703.247 171.296 709.647 172.789 715.279 175.776C720.996 178.763 725.476 183.029 728.719 188.576C732.047 194.123 733.711 200.608 733.711 208.032C733.711 215.456 732.047 221.984 728.719 227.616C725.476 233.163 720.996 237.429 715.279 240.416C709.562 243.403 703.119 244.896 695.951 244.896ZM695.951 223.136C699.45 223.136 702.351 221.856 704.655 219.296C707.044 216.651 708.239 212.896 708.239 208.032C708.239 203.168 707.044 199.456 704.655 196.896C702.351 194.336 699.492 193.056 696.079 193.056C692.666 193.056 689.807 194.336 687.503 196.896C685.199 199.456 684.047 203.168 684.047 208.032C684.047 212.981 685.156 216.736 687.375 219.296C689.594 221.856 692.452 223.136 695.951 223.136Z" fill="white"/>
<path d="M739.822 208.032C739.822 200.608 741.358 194.123 744.43 188.576C747.502 183.029 751.769 178.763 757.23 175.776C762.777 172.789 769.091 171.296 776.174 171.296C785.305 171.296 792.985 173.813 799.214 178.848C805.443 183.797 809.454 190.752 811.246 199.712H784.622C783.086 195.019 780.099 192.672 775.662 192.672C772.505 192.672 769.987 193.995 768.11 196.64C766.318 199.2 765.422 202.997 765.422 208.032C765.422 213.067 766.318 216.907 768.11 219.552C769.987 222.197 772.505 223.52 775.662 223.52C780.185 223.52 783.171 221.173 784.622 216.48H811.246C809.454 225.355 805.443 232.309 799.214 237.344C792.985 242.379 785.305 244.896 776.174 244.896C769.091 244.896 762.777 243.403 757.23 240.416C751.769 237.429 747.502 233.163 744.43 227.616C741.358 222.069 739.822 215.541 739.822 208.032ZM817.572 208.032C817.572 200.608 818.895 194.123 821.54 188.576C824.271 183.029 827.94 178.763 832.548 175.776C837.241 172.789 842.447 171.296 848.164 171.296C853.113 171.296 857.38 172.277 860.964 174.24C864.548 176.203 867.321 178.848 869.284 182.176V172.192H894.372V244H869.284V234.016C867.321 237.344 864.505 239.989 860.836 241.952C857.252 243.915 853.028 244.896 848.164 244.896C842.447 244.896 837.241 243.403 832.548 240.416C827.94 237.429 824.271 233.163 821.54 227.616C818.895 221.984 817.572 215.456 817.572 208.032ZM869.284 208.032C869.284 203.424 868.004 199.797 865.444 197.152C862.969 194.507 859.897 193.184 856.228 193.184C852.473 193.184 849.359 194.507 846.884 197.152C844.409 199.712 843.172 203.339 843.172 208.032C843.172 212.64 844.409 216.309 846.884 219.04C849.359 221.685 852.473 223.008 856.228 223.008C859.897 223.008 862.969 221.685 865.444 219.04C868.004 216.395 869.284 212.725 869.284 208.032ZM947.452 193.056H936.188V244H910.972V193.056H903.164V172.192H910.972V171.552C910.972 162.336 913.66 155.296 919.036 150.432C924.497 145.483 932.305 143.008 942.46 143.008C944.508 143.008 946.087 143.051 947.196 143.136V164.512C946.513 164.427 945.575 164.384 944.38 164.384C941.649 164.384 939.644 165.024 938.364 166.304C937.084 167.499 936.359 169.461 936.188 172.192H947.452V193.056ZM1025.03 207.264C1025.03 209.227 1024.9 211.189 1024.64 213.152H977.154C977.41 217.077 978.477 220.021 980.354 221.984C982.317 223.861 984.791 224.8 987.778 224.8C991.959 224.8 994.946 222.923 996.738 219.168H1023.49C1022.38 224.117 1020.2 228.555 1016.96 232.48C1013.8 236.32 1009.79 239.349 1004.93 241.568C1000.07 243.787 994.69 244.896 988.802 244.896C981.719 244.896 975.405 243.403 969.858 240.416C964.397 237.429 960.087 233.163 956.93 227.616C953.858 222.069 952.322 215.541 952.322 208.032C952.322 200.523 953.858 194.037 956.93 188.576C960.002 183.029 964.269 178.763 969.73 175.776C975.277 172.789 981.634 171.296 988.802 171.296C995.885 171.296 1002.16 172.747 1007.62 175.648C1013.08 178.549 1017.35 182.731 1020.42 188.192C1023.49 193.568 1025.03 199.925 1025.03 207.264ZM999.426 200.992C999.426 197.92 998.402 195.531 996.354 193.824C994.306 192.032 991.746 191.136 988.674 191.136C985.602 191.136 983.085 191.989 981.122 193.696C979.159 195.317 977.879 197.749 977.282 200.992H999.426Z" fill="#E33900"/>
<g clip-path="url(#clip0_676_14)">
<path d="M277.59 97.5L277.493 98.082L230.278 381.37C228.631 391.255 220.079 398.5 210.058 398.5H84.9424C74.9212 398.5 66.3691 391.255 64.7217 381.37L17.5068 98.082L17.4102 97.5H277.59Z" fill="white" stroke="#4B2901"/>
<path d="M275 49.5H20C9.23045 49.5 0.5 58.2304 0.5 69V78C0.5 88.7696 9.23045 97.5 20 97.5H275C285.77 97.5 294.5 88.7696 294.5 78V69C294.5 58.2304 285.77 49.5 275 49.5Z" fill="white" stroke="#4B2901"/>
<path d="M78.4385 0.5H216.562C224.485 0.500037 231.621 5.29481 234.615 12.6309L249.256 48.5H45.7441L60.3848 12.6309C63.3792 5.29481 70.5148 0.500034 78.4385 0.5Z" fill="white" stroke="#4B2901"/>
<path d="M29.5 173H265.5L246.5 287H48.5L29.5 173Z" fill="#4B2901"/>
<path d="M172 220C172 233.807 146.5 268 146.5 264C146.5 268 122 233.807 122 220C122 206.193 133.193 195 147 195C160.807 195 172 206.193 172 220Z" fill="white"/>
<path d="M147 232C155.284 232 162 225.284 162 217C162 208.716 155.284 202 147 202C138.716 202 132 208.716 132 217C132 225.284 138.716 232 147 232Z" fill="#4B2901"/>
</g>
<defs>
<clipPath id="clip0_676_14">
<rect width="295" height="399" fill="white"/>
</clipPath>
</defs>
</svg>
